<svg version="1.1" id="Layer_1" xmlns="http://www.w3.org/2000/svg" xmlns:xlink="http://www.w3.org/1999/xlink" x="0px" y="0px"
	 width="100%" viewBox="0 0 286 287" enable-background="new 0 0 286 287" xml:space="preserve">
<path fill="#FF2201" opacity="1.000000" stroke="none" 
	d="
M134.000000,1.000001 
	C140.021149,1.000000 146.042297,1.000000 152.709595,1.392414 
	C163.262726,3.510040 173.335129,4.589863 183.046387,7.078811 
	C214.991379,15.266173 240.008881,33.950375 259.430908,60.109852 
	C272.209290,77.321022 280.908661,96.550125 284.077332,118.012222 
	C284.868134,123.368568 286.016174,128.672165 287.000000,134.000000 
	C287.000000,140.354401 287.000000,146.708786 286.607513,153.709946 
	C284.989380,162.898331 284.386200,171.587158 282.408661,179.950989 
	C278.276184,197.428864 270.535645,213.359756 260.034180,227.974350 
	C247.108170,245.963120 230.962051,260.449402 211.466751,270.715851 
	C191.724899,281.112152 170.650635,287.467224 147.971771,287.047699 
	C146.987396,287.029480 145.990860,287.667572 145.000000,288.000000 
	C144.555557,288.000000 144.111099,288.000000 143.147919,287.602600 
	C136.383636,286.805786 130.121918,286.573578 123.895897,285.971924 
	C111.077278,284.733215 98.832191,281.142273 87.097176,275.974030 
	C63.959961,265.784180 44.176777,251.121811 29.191309,230.589981 
	C18.643833,216.138702 10.107719,200.572723 5.962870,182.944687 
	C4.246375,175.644409 2.650651,168.315750 1.000001,161.000000 
	C1.000000,149.979111 1.000000,138.958206 1.384458,127.302368 
	C2.178582,123.595512 2.442647,120.495865 3.021957,117.456299 
	C6.347117,100.009560 12.497271,83.630241 21.960329,68.568642 
	C31.646429,53.152039 43.733974,39.870010 58.437046,29.130983 
	C77.396271,15.283282 98.387009,6.168290 121.793114,2.978808 
	C125.876144,2.422426 129.931732,1.664723 134.000000,1.000001 
M121.251495,12.025370 
	C119.831993,12.374204 118.412491,12.723037 116.202438,12.881918 
	C114.132416,13.282448 112.062393,13.682977 109.218452,14.045407 
	C105.472717,15.114052 101.726974,16.182695 97.278168,17.356770 
	C93.784096,18.864063 90.290016,20.371355 86.095238,21.974871 
	C66.459923,31.116350 50.624290,44.608738 38.558014,63.450825 
	C36.775734,66.627831 34.993454,69.804848 32.781551,73.552826 
	C31.471415,76.627975 30.161274,79.703125 28.350147,83.295982 
	C27.544722,85.860458 26.739294,88.424934 25.472036,91.548180 
	C25.137203,92.712845 24.802370,93.877510 24.161118,95.620369 
	C24.007902,96.716927 23.854685,97.813477 23.330093,99.441895 
	C23.235645,100.293671 23.141199,101.145454 22.808092,102.734085 
	C22.720345,103.499390 22.632599,104.264694 22.186842,105.700012 
	C22.009058,107.490204 21.831274,109.280396 21.298328,111.751572 
	C21.187416,113.837166 21.076504,115.922768 20.814898,118.800346 
	C20.831802,122.209549 20.848707,125.618752 20.809896,129.938248 
	C21.202013,133.960052 21.594130,137.981873 21.958357,142.836151 
	C22.694338,146.543015 23.430317,150.249863 24.326717,154.664597 
	C25.191889,157.121704 26.057060,159.578796 26.977377,162.782578 
	C27.968639,165.217545 28.959902,167.652512 30.071108,170.716919 
	C30.677244,171.829147 31.283381,172.941376 32.030586,174.689865 
	C32.655628,175.809464 33.280670,176.929062 34.046940,178.687363 
	C34.697418,179.791794 35.347897,180.896225 36.126438,182.671936 
	C37.431564,184.772797 38.736691,186.873642 40.343319,189.566177 
	C42.225307,191.722824 44.107296,193.879486 46.115906,196.699051 
	C48.077255,198.801788 50.038605,200.904526 52.343414,203.593369 
	C57.299648,209.106384 57.423740,209.145752 63.078209,204.927734 
	C64.519577,203.852509 65.700874,202.422333 67.163757,201.383499 
	C70.729881,198.851028 74.390976,196.452301 78.104424,194.869965 
	C78.067085,205.653458 77.064644,216.537827 78.179039,227.200958 
	C81.149986,255.628448 99.725853,276.343933 126.084518,281.620300 
	C142.807175,284.967773 158.969254,281.964874 174.420654,275.569641 
	C211.637115,260.165955 238.378510,233.059906 257.924957,198.546799 
	C273.320068,171.363708 281.966339,142.419891 278.071716,110.664215 
	C274.221039,79.266991 254.259293,58.860447 222.889145,54.045338 
	C217.947906,49.008610 213.006668,43.971886 207.731613,38.420536 
	C206.819824,37.616550 205.908051,36.812565 204.577042,35.531639 
	C203.460953,34.980267 202.344849,34.428890 200.812378,33.349358 
	C198.534531,31.601173 196.256683,29.852987 193.311874,27.939049 
	C191.543884,26.955717 189.775894,25.972383 187.532928,24.497238 
	C184.733047,23.253576 181.933167,22.009914 178.564636,20.348972 
	C175.086792,19.138573 171.608948,17.928173 167.523819,16.316326 
	C163.341095,15.274359 159.158386,14.232390 154.154327,13.036810 
	C150.771713,12.682067 147.389114,12.327323 143.143646,11.956457 
	C141.421143,12.026013 139.698639,12.095570 137.124359,12.064630 
	C135.410522,12.097846 133.696671,12.131063 131.187988,12.058591 
	C130.121841,12.093845 129.055695,12.129101 127.243057,12.055497 
	C126.491814,12.092100 125.740562,12.128704 124.246590,12.004409 
	C123.495079,12.037849 122.743576,12.071291 121.251495,12.025370 
z"/>
<path fill="#FFFFFF" opacity="1.000000" stroke="none" 
	d="
M145.468658,288.000000 
	C145.990860,287.667572 146.987396,287.029480 147.971771,287.047699 
	C170.650635,287.467224 191.724899,281.112152 211.466751,270.715851 
	C230.962051,260.449402 247.108170,245.963120 260.034180,227.974350 
	C270.535645,213.359756 278.276184,197.428864 282.408661,179.950989 
	C284.386200,171.587158 284.989380,162.898331 286.607513,154.178345 
	C287.000000,198.595779 287.000000,243.191544 287.000000,288.000000 
	C239.979324,288.000000 192.958313,288.000000 145.468658,288.000000 
z"/>
<path fill="#FFFFFF" opacity="1.000000" stroke="none" 
	d="
M287.000000,133.531342 
	C286.016174,128.672165 284.868134,123.368568 284.077332,118.012222 
	C280.908661,96.550125 272.209290,77.321022 259.430908,60.109852 
	C240.008881,33.950375 214.991379,15.266173 183.046387,7.078811 
	C173.335129,4.589863 163.262726,3.510040 153.177856,1.392414 
	C197.593384,1.000000 242.186768,1.000000 287.000000,1.000000 
	C287.000000,45.020649 287.000000,89.041664 287.000000,133.531342 
z"/>
<path fill="#FFFFFF" opacity="1.000000" stroke="none" 
	d="
M1.000001,161.468658 
	C2.650651,168.315750 4.246375,175.644409 5.962870,182.944687 
	C10.107719,200.572723 18.643833,216.138702 29.191309,230.589981 
	C44.176777,251.121811 63.959961,265.784180 87.097176,275.974030 
	C98.832191,281.142273 111.077278,284.733215 123.895897,285.971924 
	C130.121918,286.573578 136.383636,286.805786 142.814606,287.602600 
	C95.743752,288.000000 48.487499,288.000000 1.000000,288.000000 
	C1.000000,245.979385 1.000000,203.958359 1.000001,161.468658 
z"/>
<path fill="#FFFFFF" opacity="1.000000" stroke="none" 
	d="
M133.531342,1.000001 
	C129.931732,1.664723 125.876144,2.422426 121.793114,2.978808 
	C98.387009,6.168290 77.396271,15.283282 58.437046,29.130983 
	C43.733974,39.870010 31.646429,53.152039 21.960329,68.568642 
	C12.497271,83.630241 6.347117,100.009560 3.021957,117.456299 
	C2.442647,120.495865 2.178582,123.595512 1.384458,126.833710 
	C1.000000,85.071045 1.000000,43.142086 1.000000,1.000000 
	C45.020664,1.000000 89.041672,1.000000 133.531342,1.000001 
z"/>
<path fill="#FFFCFC" opacity="1.000000" stroke="none" 
	d="
M223.035553,54.685528 
	C254.259293,58.860447 274.221039,79.266991 278.071716,110.664215 
	C281.966339,142.419891 273.320068,171.363708 257.924957,198.546799 
	C238.378510,233.059906 211.637115,260.165955 174.420654,275.569641 
	C158.969254,281.964874 142.807175,284.967773 126.084518,281.620300 
	C99.725853,276.343933 81.149986,255.628448 78.179039,227.200958 
	C77.064644,216.537827 78.067085,205.653458 78.247269,194.078308 
	C79.232918,188.858902 80.075722,184.431152 81.110489,179.669159 
	C82.846825,174.224457 84.391190,169.113968 86.160027,163.721466 
	C88.396950,158.335724 90.409409,153.232010 92.706024,147.946777 
	C94.694786,144.782227 96.399384,141.799210 98.103973,138.816193 
	C98.502869,139.003357 98.901764,139.190506 99.300659,139.377670 
	C98.583618,141.590149 97.866570,143.802612 96.953339,146.323242 
	C94.474113,154.085663 92.191078,161.539948 89.681068,169.314026 
	C88.891891,173.749985 88.329689,177.866165 87.572983,182.350296 
	C87.607841,190.687119 87.106438,198.758209 88.204506,206.605515 
	C91.411041,229.520859 106.383919,246.095764 127.398979,250.637726 
	C142.096298,253.814240 156.343033,251.301880 169.868774,245.494949 
	C206.471893,229.780350 231.051849,202.011627 247.049072,166.253113 
	C256.398804,145.353668 260.996857,123.465149 255.887787,100.586090 
	C252.247360,84.283791 244.143555,70.994682 227.802704,63.696541 
	C223.056030,62.212254 218.555405,61.008652 213.711060,59.585922 
	C210.246475,59.277466 207.125610,59.188133 203.563477,59.016479 
	C197.830292,59.338882 192.538391,59.743618 187.492065,59.863792 
	C188.161575,59.320366 188.585480,59.061504 189.393677,58.823685 
	C200.592773,55.290909 211.719772,54.233509 223.035553,54.685528 
z"/>
<path fill="#FF5C43" opacity="1.000000" stroke="none" 
	d="
M24.166300,153.956726 
	C23.430317,150.249863 22.694338,146.543015 22.321903,142.360992 
	C28.897087,136.983582 35.252426,132.251221 41.290596,127.143883 
	C54.068401,116.335869 66.659203,105.307114 79.366722,94.415581 
	C92.323250,83.310638 105.322975,72.256065 118.312630,61.189812 
	C131.050095,50.338394 143.882965,39.596703 156.494659,28.601196 
	C160.660461,24.969234 164.268204,20.697168 168.131104,16.717777 
	C171.608948,17.928173 175.086792,19.138573 178.760452,20.918062 
	C177.981766,22.806553 177.210876,24.360981 176.001190,25.408939 
	C164.083466,35.733482 152.116196,46.001286 140.117355,56.231689 
	C122.690277,71.090294 105.176842,85.847939 87.790451,100.753883 
	C70.274872,115.770592 52.915943,130.970200 35.376465,145.958710 
	C31.900143,148.929428 27.916172,151.306107 24.166300,153.956726 
z"/>
<path fill="#FF644C" opacity="1.000000" stroke="none" 
	d="
M167.827469,16.517054 
	C164.268204,20.697168 160.660461,24.969234 156.494659,28.601196 
	C143.882965,39.596703 131.050095,50.338394 118.312630,61.189812 
	C105.322975,72.256065 92.323250,83.310638 79.366722,94.415581 
	C66.659203,105.307114 54.068401,116.335869 41.290596,127.143883 
	C35.252426,132.251221 28.897087,136.983582 22.335848,141.944763 
	C21.594130,137.981873 21.202013,133.960052 21.213543,129.461151 
	C23.031954,128.207016 24.628632,127.643974 25.833344,126.619858 
	C37.837833,116.414970 49.751942,106.103859 61.742210,95.882141 
	C76.885307,82.972610 92.093788,70.139778 107.240173,57.234081 
	C120.998741,45.510895 134.797119,33.831367 148.372391,21.898718 
	C151.053482,19.542034 152.798798,16.120745 154.975662,13.190424 
	C159.158386,14.232390 163.341095,15.274359 167.827469,16.517054 
z"/>
<path fill="#FF543A" opacity="1.000000" stroke="none" 
	d="
M24.246510,154.310669 
	C27.916172,151.306107 31.900143,148.929428 35.376465,145.958710 
	C52.915943,130.970200 70.274872,115.770592 87.790451,100.753883 
	C105.176842,85.847939 122.690277,71.090294 140.117355,56.231689 
	C152.116196,46.001286 164.083466,35.733482 176.001190,25.408939 
	C177.210876,24.360981 177.981766,22.806553 179.044769,21.126703 
	C181.933167,22.009914 184.733047,23.253576 187.602066,25.032206 
	C171.811646,39.465656 156.047333,53.474773 140.066544,67.232430 
	C123.076698,81.858772 105.823395,96.178680 88.792435,110.757744 
	C71.253471,125.771660 53.890766,140.991653 36.329899,155.979645 
	C33.518768,158.378922 30.074049,160.035812 26.922230,162.035904 
	C26.057060,159.578796 25.191889,157.121704 24.246510,154.310669 
z"/>
<path fill="#FF6C56" opacity="1.000000" stroke="none" 
	d="
M154.565002,13.113617 
	C152.798798,16.120745 151.053482,19.542034 148.372391,21.898718 
	C134.797119,33.831367 120.998741,45.510895 107.240173,57.234081 
	C92.093788,70.139778 76.885307,82.972610 61.742210,95.882141 
	C49.751942,106.103859 37.837833,116.414970 25.833344,126.619858 
	C24.628632,127.643974 23.031954,128.207016 21.241402,129.005997 
	C20.848707,125.618752 20.831802,122.209549 21.233641,118.341125 
	C22.609053,117.247589 23.642992,116.704033 24.510729,115.965263 
	C36.383247,105.857368 48.224422,95.712677 60.090267,85.596924 
	C73.089394,74.515045 86.113342,63.462288 99.112862,52.380871 
	C109.966911,43.128357 120.898964,33.963577 131.597351,24.534029 
	C136.002258,20.651548 139.885803,16.177536 144.006500,11.972578 
	C147.389114,12.327323 150.771713,12.682067 154.565002,13.113617 
z"/>
<path fill="#FF4E33" opacity="1.000000" stroke="none" 
	d="
M26.949802,162.409241 
	C30.074049,160.035812 33.518768,158.378922 36.329899,155.979645 
	C53.890766,140.991653 71.253471,125.771660 88.792435,110.757744 
	C105.823395,96.178680 123.076698,81.858772 140.066544,67.232430 
	C156.047333,53.474773 171.811646,39.465656 187.839539,25.278112 
	C189.775894,25.972383 191.543884,26.955717 193.632874,28.375317 
	C192.933960,30.228495 192.131027,31.890099 190.856674,33.020065 
	C185.264648,37.978485 179.539703,42.787167 173.856552,47.642658 
	C162.997360,56.920387 152.038757,66.085144 141.323547,75.526222 
	C137.564255,78.838509 134.398361,82.824265 130.615509,86.576950 
	C125.268974,86.701492 122.703262,89.672409 120.973099,94.118500 
	C119.135086,94.877464 117.464935,95.363472 116.235901,96.381851 
	C109.465691,101.991692 102.787354,107.713020 96.106766,113.430298 
	C74.048141,132.308136 52.002052,151.200607 29.951162,170.087479 
	C28.959902,167.652512 27.968639,165.217545 26.949802,162.409241 
z"/>
<path fill="#FF4024" opacity="1.000000" stroke="none" 
	d="
M97.149529,146.015091 
	C97.866570,143.802612 98.583618,141.590149 99.300659,139.377670 
	C98.901764,139.190506 98.502869,139.003357 98.103973,138.816193 
	C96.399384,141.799210 94.694786,144.782227 92.317215,147.932465 
	C90.207245,148.789597 88.541153,149.210846 87.368492,150.210770 
	C75.059822,160.706314 62.894688,171.370987 50.534538,181.804901 
	C47.314293,184.523300 43.554050,186.602005 40.041817,188.974518 
	C38.736691,186.873642 37.431564,184.772797 36.368141,182.189850 
	C40.223328,178.819305 43.924171,176.032837 47.435123,173.024719 
	C62.273670,160.311234 76.967262,147.426743 91.913406,134.841782 
	C96.280785,131.164337 101.308510,128.271164 106.028885,125.341293 
	C106.020683,126.095161 106.017166,126.526245 105.680511,127.052567 
	C103.914268,129.250183 102.481163,131.352539 100.803658,133.813446 
	C104.302185,134.016495 107.160904,134.182404 110.003006,134.689636 
	C107.249649,140.494644 102.781288,143.934677 97.149529,146.015091 
z"/>
<path fill="#FF482D" opacity="1.000000" stroke="none" 
	d="
M30.011135,170.402191 
	C52.002052,151.200607 74.048141,132.308136 96.106766,113.430298 
	C102.787354,107.713020 109.465691,101.991692 116.235901,96.381851 
	C117.464935,95.363472 119.135086,94.877464 121.060005,94.451080 
	C121.959724,96.507202 122.401047,98.257927 122.490135,100.026062 
	C120.752136,100.868858 119.214256,101.515907 118.004570,102.547729 
	C108.048805,111.039711 98.169464,119.621193 88.237152,128.140808 
	C72.272842,141.834457 56.333542,155.558243 40.257248,169.119415 
	C37.817001,171.177872 34.695770,172.429047 31.889519,174.053604 
	C31.283381,172.941376 30.677244,171.829147 30.011135,170.402191 
z"/>
<path fill="#FF7660" opacity="1.000000" stroke="none" 
	d="
M143.575073,11.964518 
	C139.885803,16.177536 136.002258,20.651548 131.597351,24.534029 
	C120.898964,33.963577 109.966911,43.128357 99.112862,52.380871 
	C86.113342,63.462288 73.089394,74.515045 60.090267,85.596924 
	C48.224422,95.712677 36.383247,105.857368 24.510729,115.965263 
	C23.642992,116.704033 22.609053,117.247589 21.308989,117.945129 
	C21.076504,115.922768 21.187416,113.837166 21.872746,111.381233 
	C23.509544,110.602760 24.785154,110.444954 25.602297,109.748909 
	C37.710621,99.435013 49.748108,89.038033 61.822899,78.684669 
	C74.023468,68.223465 86.231323,57.770634 98.464378,47.347469 
	C110.947189,36.711510 123.481926,26.136364 135.931854,15.462183 
	C136.867645,14.659852 137.306351,13.277724 137.976135,12.165124 
	C139.698639,12.095570 141.421143,12.026013 143.575073,11.964518 
z"/>
<path fill="#FF482D" opacity="1.000000" stroke="none" 
	d="
M130.961502,86.502487 
	C134.398361,82.824265 137.564255,78.838509 141.323547,75.526222 
	C152.038757,66.085144 162.997360,56.920387 173.856552,47.642658 
	C179.539703,42.787167 185.264648,37.978485 190.856674,33.020065 
	C192.131027,31.890099 192.933960,30.228495 193.966354,28.458191 
	C196.256683,29.852987 198.534531,31.601173 200.705627,33.790394 
	C198.624023,36.010826 196.687027,37.834461 194.668182,39.562443 
	C181.560593,50.781536 168.459839,62.008877 155.304916,73.172310 
	C149.008896,78.515182 142.599152,83.724045 135.940186,88.854446 
	C134.080124,87.977692 132.520813,87.240089 130.961502,86.502487 
z"/>
<path fill="#FF7F6A" opacity="1.000000" stroke="none" 
	d="
M137.550247,12.114876 
	C137.306351,13.277724 136.867645,14.659852 135.931854,15.462183 
	C123.481926,26.136364 110.947189,36.711510 98.464378,47.347469 
	C86.231323,57.770634 74.023468,68.223465 61.822899,78.684669 
	C49.748108,89.038033 37.710621,99.435013 25.602297,109.748909 
	C24.785154,110.444954 23.509544,110.602760 22.050327,111.040741 
	C21.831274,109.280396 22.009058,107.490204 22.773750,105.351196 
	C24.432224,104.612732 25.725193,104.484634 26.541586,103.793556 
	C36.173229,95.640182 45.733749,87.402786 55.312626,79.187080 
	C67.664268,68.593208 79.993195,57.972691 92.373291,47.412186 
	C104.876907,36.746330 117.448479,26.160048 129.928284,15.466570 
	C130.867081,14.662153 131.309616,13.278612 131.982834,12.164280 
	C133.696671,12.131063 135.410522,12.097846 137.550247,12.114876 
z"/>
<path fill="#FF4529" opacity="1.000000" stroke="none" 
	d="
M31.960052,174.371735 
	C34.695770,172.429047 37.817001,171.177872 40.257248,169.119415 
	C56.333542,155.558243 72.272842,141.834457 88.237152,128.140808 
	C98.169464,119.621193 108.048805,111.039711 118.004570,102.547729 
	C119.214256,101.515907 120.752136,100.868858 122.703568,100.178192 
	C123.572006,100.730888 123.874771,101.148872 124.015778,101.891403 
	C121.918343,104.811752 119.982666,107.407547 117.947617,110.328499 
	C116.232033,112.436989 114.615837,114.220322 112.908684,115.691116 
	C111.475426,115.493919 109.711639,115.097931 108.855782,115.803421 
	C99.919640,123.169456 91.090866,130.667633 82.307449,138.216599 
	C69.506851,149.218185 56.829498,160.364120 43.957607,171.281082 
	C40.895988,173.877701 37.271370,175.810516 33.905712,178.048660 
	C33.280670,176.929062 32.655628,175.809464 31.960052,174.371735 
z"/>
<path fill="#FF3719" opacity="1.000000" stroke="none" 
	d="
M40.192570,189.270355 
	C43.554050,186.602005 47.314293,184.523300 50.534538,181.804901 
	C62.894688,171.370987 75.059822,160.706314 87.368492,150.210770 
	C88.541153,149.210846 90.207245,148.789597 92.033051,148.113983 
	C90.409409,153.232010 88.396950,158.335724 85.795677,163.737808 
	C83.703308,164.660980 81.916931,164.955124 80.739998,165.961792 
	C69.098633,175.919006 57.558254,185.994278 45.989281,196.036133 
	C44.107296,193.879486 42.225307,191.722824 40.192570,189.270355 
z"/>
<path fill="#FF4225" opacity="1.000000" stroke="none" 
	d="
M136.240921,88.993607 
	C142.599152,83.724045 149.008896,78.515182 155.304916,73.172310 
	C168.459839,62.008877 181.560593,50.781536 194.668182,39.562443 
	C196.687027,37.834461 198.624023,36.010826 200.913818,34.054474 
	C202.344849,34.428890 203.460953,34.980267 204.725479,36.107407 
	C197.886398,43.140301 190.807556,49.502926 183.968048,56.113197 
	C181.963242,58.050812 180.638306,60.691887 178.665222,63.029015 
	C177.555389,63.700134 176.782135,64.352791 175.641968,65.019989 
	C173.808853,65.732910 172.115051,66.161545 170.914383,67.174622 
	C164.437851,72.639313 158.206421,78.399498 151.642868,83.754265 
	C147.460297,87.166534 142.847961,90.052032 138.279144,92.915993 
	C137.500290,91.436707 136.870605,90.215157 136.240921,88.993607 
z"/>
<path fill="#FFA393" opacity="1.000000" stroke="none" 
	d="
M28.851135,82.778275 
	C30.161274,79.703125 31.471415,76.627975 33.361290,73.264732 
	C35.294613,72.472542 36.902702,72.278404 37.958427,71.411545 
	C42.944042,67.317841 47.767246,63.026909 52.669018,58.830421 
	C66.115005,47.319080 79.632622,35.889957 92.960419,24.243517 
	C95.064232,22.405109 96.328697,19.606169 97.981239,17.251341 
	C101.726974,16.182695 105.472717,15.114052 109.540466,14.397243 
	C108.820381,16.008497 107.934395,17.450239 106.710876,18.497746 
	C98.769508,25.296690 90.709862,31.957544 82.773254,38.761951 
	C65.887810,53.238567 49.068405,67.792290 32.148960,82.228874 
	C31.422392,82.848816 29.967009,82.614594 28.851135,82.778275 
z"/>
<path fill="#FF9988" opacity="1.000000" stroke="none" 
	d="
M28.600643,83.037125 
	C29.967009,82.614594 31.422392,82.848816 32.148960,82.228874 
	C49.068405,67.792290 65.887810,53.238567 82.773254,38.761951 
	C90.709862,31.957544 98.769508,25.296690 106.710876,18.497746 
	C107.934395,17.450239 108.820381,16.008497 109.927422,14.416292 
	C112.062393,13.682977 114.132416,13.282448 116.534073,13.309803 
	C115.252609,15.596447 113.829575,17.673697 111.990929,19.273182 
	C106.371300,24.161842 100.536079,28.801844 94.884636,33.654922 
	C75.410606,50.377880 56.024246,67.203346 36.486279,83.851028 
	C33.273731,86.588348 29.466343,88.627556 25.933868,90.989410 
	C26.739294,88.424934 27.544722,85.860458 28.600643,83.037125 
z"/>
<path fill="#FF2F10" opacity="1.000000" stroke="none" 
	d="
M46.052597,196.367584 
	C57.558254,185.994278 69.098633,175.919006 80.739998,165.961792 
	C81.916931,164.955124 83.703308,164.660980 85.571213,164.019836 
	C84.391190,169.113968 82.846825,174.224457 80.752792,179.685760 
	C70.802071,187.693451 61.401005,195.350357 51.999947,203.007263 
	C50.038605,200.904526 48.077255,198.801788 46.052597,196.367584 
z"/>
<path fill="#FF4225" opacity="1.000000" stroke="none" 
	d="
M33.976326,178.368011 
	C37.271370,175.810516 40.895988,173.877701 43.957607,171.281082 
	C56.829498,160.364120 69.506851,149.218185 82.307449,138.216599 
	C91.090866,130.667633 99.919640,123.169456 108.855782,115.803421 
	C109.711639,115.097931 111.475426,115.493919 112.855240,116.030991 
	C112.609207,117.791115 112.325668,118.898819 112.030251,120.013123 
	C112.018372,120.019707 112.002884,120.042030 111.710846,120.080566 
	C110.936890,120.434097 110.454956,120.749084 109.670517,121.155411 
	C108.256523,122.503998 107.145050,123.761261 106.033569,125.018517 
	C101.308510,128.271164 96.280785,131.164337 91.913406,134.841782 
	C76.967262,147.426743 62.273670,160.311234 47.435123,173.024719 
	C43.924171,176.032837 40.223328,178.819305 36.304108,181.854202 
	C35.347897,180.896225 34.697418,179.791794 33.976326,178.368011 
z"/>
<path fill="#FF8672" opacity="1.000000" stroke="none" 
	d="
M131.585419,12.111437 
	C131.309616,13.278612 130.867081,14.662153 129.928284,15.466570 
	C117.448479,26.160048 104.876907,36.746330 92.373291,47.412186 
	C79.993195,57.972691 67.664268,68.593208 55.312626,79.187080 
	C45.733749,87.402786 36.173229,95.640182 26.541586,103.793556 
	C25.725193,104.484634 24.432224,104.612732 22.952755,105.016190 
	C22.632599,104.264694 22.720345,103.499390 23.285912,102.350052 
	C24.675087,101.615196 25.769205,101.478790 26.470272,100.881241 
	C36.298622,92.504265 46.066498,84.056404 55.863022,75.642014 
	C66.161369,66.796593 76.465935,57.958374 86.783630,49.135532 
	C99.490601,38.269585 112.239952,27.452892 124.891205,16.522564 
	C126.201233,15.390736 126.969757,13.632135 127.989540,12.164354 
	C129.055695,12.129101 130.121841,12.093845 131.585419,12.111437 
z"/>
<path fill="#FFAD9F" opacity="1.000000" stroke="none" 
	d="
M97.629700,17.304054 
	C96.328697,19.606169 95.064232,22.405109 92.960419,24.243517 
	C79.632622,35.889957 66.115005,47.319080 52.669018,58.830421 
	C47.767246,63.026909 42.944042,67.317841 37.958427,71.411545 
	C36.902702,72.278404 35.294613,72.472542 33.576096,72.979248 
	C34.993454,69.804848 36.775734,66.627831 39.186043,63.213181 
	C41.321476,62.338505 43.103352,62.025127 44.294418,61.015068 
	C58.315372,49.124931 72.266624,37.152069 86.144913,25.095875 
	C86.799530,24.527206 86.598495,22.973572 86.795944,21.878647 
	C90.290016,20.371355 93.784096,18.864063 97.629700,17.304054 
z"/>
<path fill="#FFB4A7" opacity="1.000000" stroke="none" 
	d="
M86.445587,21.926760 
	C86.598495,22.973572 86.799530,24.527206 86.144913,25.095875 
	C72.266624,37.152069 58.315372,49.124931 44.294418,61.015068 
	C43.103352,62.025127 41.321476,62.338505 39.451637,63.000549 
	C50.624290,44.608738 66.459923,31.116350 86.445587,21.926760 
z"/>
<path fill="#FF3719" opacity="1.000000" stroke="none" 
	d="
M222.962341,54.365433 
	C211.719772,54.233509 200.592773,55.290909 189.412659,58.474480 
	C191.228638,55.489639 193.218948,52.681015 195.634232,50.304207 
	C199.633957,46.368183 203.907349,42.710258 208.065445,38.935158 
	C213.006668,43.971886 217.947906,49.008610 222.962341,54.365433 
z"/>
<path fill="#FF8A77" opacity="1.000000" stroke="none" 
	d="
M127.616302,12.109925 
	C126.969757,13.632135 126.201233,15.390736 124.891205,16.522564 
	C112.239952,27.452892 99.490601,38.269585 86.783630,49.135532 
	C76.465935,57.958374 66.161369,66.796593 55.863022,75.642014 
	C46.066498,84.056404 36.298622,92.504265 26.470272,100.881241 
	C25.769205,101.478790 24.675087,101.615196 23.405243,101.981628 
	C23.141199,101.145454 23.235645,100.293671 23.876194,99.148567 
	C25.615459,97.570877 26.808624,96.286507 28.250887,95.001068 
	C28.499983,95.000000 28.998178,94.997986 29.335720,94.937164 
	C31.449394,92.918228 33.225525,90.960106 35.000824,89.000992 
	C35.000000,89.000000 35.001476,89.001663 35.363159,88.985886 
	C37.817116,86.980743 39.909382,84.991364 42.000824,83.000992 
	C42.000000,83.000000 42.001476,83.001663 42.363159,82.985886 
	C44.817112,80.980743 46.909382,78.991364 49.000824,77.000992 
	C49.000000,77.000000 49.001476,77.001663 49.363159,76.985886 
	C51.817112,74.980736 53.909378,72.991364 56.000824,71.000992 
	C56.000000,71.000000 56.001476,71.001663 56.363159,70.985886 
	C58.817112,68.980736 60.909378,66.991364 63.000824,65.000992 
	C63.000000,65.000000 63.001476,65.001663 63.363163,64.985886 
	C65.817123,62.980736 67.909393,60.991360 70.000832,59.000992 
	C70.000000,59.000000 70.001465,59.001659 70.363152,58.985886 
	C72.817116,56.980736 74.909393,54.991364 77.000839,53.000996 
	C77.000000,53.000000 77.001465,53.001667 77.363152,52.985893 
	C79.817116,50.980747 81.909393,48.991371 84.000839,47.000999 
	C84.000000,47.000000 84.001465,47.001667 84.363152,46.985893 
	C86.817116,44.980743 88.909393,42.991371 91.000839,41.000999 
	C91.000000,41.000000 91.001465,41.001667 91.363152,40.985893 
	C93.817116,38.980743 95.909393,36.991371 98.000839,35.000999 
	C98.000000,35.000000 98.001465,35.001667 98.363495,34.985825 
	C99.640205,34.625435 100.737640,34.496815 101.440445,33.901947 
	C106.750984,29.406958 112.061409,24.905590 117.210121,20.228165 
	C119.968384,17.722387 122.406647,14.864369 124.989319,12.165309 
	C125.740562,12.128704 126.491814,12.092100 127.616302,12.109925 
z"/>
<path fill="#FF9381" opacity="1.000000" stroke="none" 
	d="
M28.998180,94.997986 
	C28.998178,94.997986 28.499983,95.000000 27.812538,95.001083 
	C26.239243,95.015511 25.353388,95.028839 24.467535,95.042175 
	C24.802370,93.877510 25.137203,92.712845 25.702951,91.268799 
	C29.466343,88.627556 33.273731,86.588348 36.486279,83.851028 
	C56.024246,67.203346 75.410606,50.377880 94.884636,33.654922 
	C100.536079,28.801844 106.371300,24.161842 111.990929,19.273182 
	C113.829575,17.673697 115.252609,15.596447 116.929352,13.404779 
	C118.412491,12.723037 119.831993,12.374204 121.555984,12.395943 
	C120.537224,14.199954 119.309738,15.738294 117.874306,17.048874 
	C111.281822,23.067957 104.631218,29.023392 98.001465,35.001671 
	C98.001465,35.001667 98.000000,35.000000 97.665497,35.060959 
	C95.221153,37.081833 93.111313,39.041748 91.001465,41.001667 
	C91.001465,41.001667 91.000000,41.000000 90.665497,41.060959 
	C88.221153,43.081833 86.111313,45.041752 84.001465,47.001667 
	C84.001465,47.001667 84.000000,47.000000 83.665497,47.060959 
	C81.221153,49.081837 79.111313,51.041752 77.001465,53.001667 
	C77.001465,53.001667 77.000000,53.000000 76.665497,53.060959 
	C74.221161,55.081833 72.111313,57.041748 70.001465,59.001659 
	C70.001465,59.001659 70.000000,59.000000 69.665497,59.060955 
	C67.221153,61.081829 65.111313,63.041748 63.001480,65.001663 
	C63.001476,65.001663 63.000000,65.000000 62.665489,65.060959 
	C60.221146,67.081825 58.111309,69.041748 56.001476,71.001663 
	C56.001476,71.001663 56.000000,71.000000 55.665489,71.060959 
	C53.221142,73.081825 51.111309,75.041748 49.001476,77.001663 
	C49.001476,77.001663 49.000000,77.000000 48.665493,77.060959 
	C46.221149,79.081833 44.111317,81.041748 42.001480,83.001663 
	C42.001476,83.001663 42.000000,83.000000 41.665489,83.060959 
	C39.221149,85.081833 37.111313,87.041748 35.001480,89.001663 
	C35.001476,89.001663 35.000000,89.000000 34.663307,89.061859 
	C32.550468,91.081802 30.774324,93.039894 28.998180,94.997986 
z"/>
<path fill="#FF2909" opacity="1.000000" stroke="none" 
	d="
M52.171677,203.300323 
	C61.401005,195.350357 70.802071,187.693451 80.560829,180.019974 
	C80.075722,184.431152 79.232918,188.858902 78.201981,193.643188 
	C74.390976,196.452301 70.729881,198.851028 67.163757,201.383499 
	C65.700874,202.422333 64.519577,203.852509 63.078209,204.927734 
	C57.423740,209.145752 57.299648,209.106384 52.171677,203.300323 
z"/>
<path fill="#FF4024" opacity="1.000000" stroke="none" 
	d="
M207.898529,38.677849 
	C203.907349,42.710258 199.633957,46.368183 195.634232,50.304207 
	C193.218948,52.681015 191.228638,55.489639 189.028381,58.453438 
	C188.585480,59.061504 188.161575,59.320366 187.150024,59.836300 
	C184.042175,61.065762 181.521973,62.038155 179.001770,63.010551 
	C180.638306,60.691887 181.963242,58.050812 183.968048,56.113197 
	C190.807556,49.502926 197.886398,43.140301 204.935089,36.345875 
	C205.908051,36.812565 206.819824,37.616550 207.898529,38.677849 
z"/>
<path fill="#FF8E7C" opacity="1.000000" stroke="none" 
	d="
M98.363495,34.985828 
	C104.631218,29.023392 111.281822,23.067957 117.874306,17.048874 
	C119.309738,15.738294 120.537224,14.199954 121.926270,12.435623 
	C122.743576,12.071291 123.495079,12.037849 124.617950,12.084860 
	C122.406647,14.864369 119.968384,17.722387 117.210121,20.228165 
	C112.061409,24.905590 106.750984,29.406958 101.440445,33.901947 
	C100.737640,34.496815 99.640205,34.625435 98.363495,34.985828 
z"/>
<path fill="#FF8E7C" opacity="1.000000" stroke="none" 
	d="
M24.314327,95.331268 
	C25.353388,95.028839 26.239243,95.015511 27.563442,95.002151 
	C26.808624,96.286507 25.615459,97.570877 24.061882,98.882637 
	C23.854685,97.813477 24.007902,96.716927 24.314327,95.331268 
z"/>
<path fill="#FF2201" opacity="1.000000" stroke="none" 
	d="
M228.048737,63.977226 
	C244.143555,70.994682 252.247360,84.283791 255.887787,100.586090 
	C260.996857,123.465149 256.398804,145.353668 247.049072,166.253113 
	C231.051849,202.011627 206.471893,229.780350 169.868774,245.494949 
	C156.343033,251.301880 142.096298,253.814240 127.398979,250.637726 
	C106.383919,246.095764 91.411041,229.520859 88.204506,206.605515 
	C87.106438,198.758209 87.607841,190.687119 87.950989,182.341522 
	C92.710579,178.841965 97.054153,175.906372 101.055885,172.561783 
	C113.882675,161.841293 126.606628,150.997025 139.293076,140.110550 
	C140.476257,139.095230 141.112991,137.443085 142.402588,136.016296 
	C144.512299,136.208328 146.222885,136.470718 148.562881,136.829651 
	C141.638596,149.645554 135.073166,161.797272 128.374557,174.195496 
	C140.132401,175.470917 140.114487,175.461594 145.051254,165.966476 
	C155.098572,146.642120 165.167252,127.328865 175.575745,107.993164 
	C177.184204,107.251488 178.581985,106.693375 179.681961,105.777557 
	C188.065460,98.797585 196.462555,91.830757 204.713593,84.695816 
	C212.581024,77.892586 220.277252,70.891396 228.048737,63.977226 
z"/>
<path fill="#FF3719" opacity="1.000000" stroke="none" 
	d="
M178.665222,63.029015 
	C181.521973,62.038155 184.042175,61.065762 186.904419,60.120861 
	C192.538391,59.743618 197.830292,59.338882 203.495972,59.347458 
	C201.791870,62.110374 199.959198,64.746948 197.597839,66.764832 
	C175.891037,85.314163 154.049255,103.705757 132.385757,122.305161 
	C130.133438,124.238922 128.780823,127.220612 126.548233,129.789459 
	C120.422096,129.737442 114.750343,129.738434 109.101959,129.375671 
	C108.025192,129.306519 107.040710,127.800430 106.013649,126.957321 
	C106.017166,126.526245 106.020683,126.095161 106.028885,125.341309 
	C107.145050,123.761261 108.256523,122.503998 109.872849,121.309189 
	C110.919418,120.928436 111.461151,120.485237 112.002884,120.042030 
	C112.002884,120.042030 112.018372,120.019707 112.388229,119.996460 
	C116.429604,117.227173 120.267296,114.672386 123.718964,111.673317 
	C126.380760,109.360550 128.557907,106.489990 131.235153,103.677490 
	C133.844086,101.264473 136.168427,99.041412 138.886047,96.850807 
	C140.611603,96.325081 142.171082,96.042831 143.238998,95.163551 
	C149.773666,89.783112 156.357712,84.443420 162.604767,78.739113 
	C167.320801,74.432823 171.558365,69.602524 176.008881,65.005447 
	C176.782135,64.352791 177.555389,63.700134 178.665222,63.029015 
z"/>
<path fill="#FF2909" opacity="1.000000" stroke="none" 
	d="
M227.802704,63.696545 
	C220.277252,70.891396 212.581024,77.892586 204.713593,84.695816 
	C196.462555,91.830757 188.065460,98.797585 179.681961,105.777557 
	C178.581985,106.693375 177.184204,107.251488 175.523529,107.574295 
	C168.517181,104.744705 165.933502,105.557823 162.870392,111.068596 
	C161.054459,114.335617 158.834793,117.461121 157.564423,120.931320 
	C154.898468,128.213684 150.472397,131.879547 142.432709,130.095139 
	C140.689728,129.708298 138.818649,129.898560 137.076920,129.497650 
	C138.284088,127.763397 139.242615,126.150032 140.586334,124.978470 
	C150.089676,116.692642 159.661911,108.485649 169.231918,100.276535 
	C179.934204,91.096161 190.760666,82.056976 201.322800,72.718513 
	C205.840805,68.723946 209.826965,64.127838 214.054764,59.805046 
	C218.555405,61.008652 223.056030,62.212254 227.802704,63.696545 
z"/>
<path fill="#FF2F10" opacity="1.000000" stroke="none" 
	d="
M213.711060,59.585922 
	C209.826965,64.127838 205.840805,68.723946 201.322800,72.718513 
	C190.760666,82.056976 179.934204,91.096161 169.231918,100.276535 
	C159.661911,108.485649 150.089676,116.692642 140.586334,124.978470 
	C139.242615,126.150032 138.284088,127.763397 136.627075,129.568787 
	C133.074814,129.882217 130.042786,129.799149 127.010742,129.716080 
	C128.780823,127.220612 130.133438,124.238922 132.385757,122.305161 
	C154.049255,103.705757 175.891037,85.314163 197.597839,66.764832 
	C199.959198,64.746948 201.791870,62.110374 203.937256,59.429787 
	C207.125610,59.188133 210.246475,59.277466 213.711060,59.585922 
z"/>
<path fill="#FF2909" opacity="1.000000" stroke="none" 
	d="
M142.003448,136.086639 
	C141.112991,137.443085 140.476257,139.095230 139.293076,140.110550 
	C126.606628,150.997025 113.882675,161.841293 101.055885,172.561783 
	C97.054153,175.906372 92.710579,178.841965 88.145485,181.973541 
	C88.329689,177.866165 88.891891,173.749985 90.028534,169.256271 
	C91.320129,168.488129 92.130745,168.207687 92.740448,167.690430 
	C101.914841,159.907013 111.160011,152.202103 120.161606,144.222717 
	C123.111328,141.607956 125.412384,138.261398 128.439423,135.191925 
	C133.246994,135.451767 137.625229,135.769211 142.003448,136.086639 
z"/>
<path fill="#FF3113" opacity="1.000000" stroke="none" 
	d="
M128.010086,135.249512 
	C125.412384,138.261398 123.111328,141.607956 120.161606,144.222717 
	C111.160011,152.202103 101.914841,159.907013 92.740448,167.690430 
	C92.130745,168.207687 91.320129,168.488129 90.255508,168.936478 
	C92.191078,161.539948 94.474113,154.085663 96.953339,146.323242 
	C102.781288,143.934677 107.249649,140.494644 110.427216,134.633133 
	C116.582054,134.573395 122.296066,134.911453 128.010086,135.249512 
z"/>
<path fill="#FFFCFC" opacity="1.000000" stroke="none" 
	d="
M138.492767,96.818344 
	C136.168427,99.041412 133.844086,101.264473 130.948761,103.575150 
	C129.777756,103.699036 129.177734,103.735313 128.302155,103.544968 
	C126.743576,102.734512 125.460556,102.150681 124.177536,101.566849 
	C123.874771,101.148872 123.572006,100.730888 123.055801,100.160782 
	C122.401047,98.257927 121.959724,96.507202 121.431503,94.423889 
	C122.703262,89.672409 125.268974,86.701492 130.615509,86.576950 
	C132.520813,87.240089 134.080124,87.977692 135.940186,88.854446 
	C136.870605,90.215157 137.500290,91.436707 138.264496,93.281082 
	C138.430283,94.875381 138.461517,95.846863 138.492767,96.818344 
z"/>
<path fill="#FFF8F6" opacity="1.000000" stroke="none" 
	d="
M128.439423,135.191925 
	C122.296066,134.911453 116.582054,134.573395 110.443832,134.291840 
	C107.160904,134.182404 104.302185,134.016495 100.803658,133.813446 
	C102.481163,131.352539 103.914268,129.250183 105.680511,127.052567 
	C107.040710,127.800430 108.025192,129.306519 109.101959,129.375671 
	C114.750343,129.738434 120.422096,129.737442 126.548233,129.789459 
	C130.042786,129.799149 133.074814,129.882217 136.556702,129.894150 
	C138.818649,129.898560 140.689728,129.708298 142.432709,130.095139 
	C150.472397,131.879547 154.898468,128.213684 157.564423,120.931320 
	C158.834793,117.461121 161.054459,114.335617 162.870392,111.068596 
	C165.933502,105.557823 168.517181,104.744705 175.174911,107.592163 
	C165.167252,127.328865 155.098572,146.642120 145.051254,165.966476 
	C140.114487,175.461594 140.132401,175.470917 128.374557,174.195496 
	C135.073166,161.797272 141.638596,149.645554 148.562881,136.829651 
	C146.222885,136.470718 144.512299,136.208328 142.402588,136.016296 
	C137.625229,135.769211 133.246994,135.451767 128.439423,135.191925 
z"/>
<path fill="#FF4024" opacity="1.000000" stroke="none" 
	d="
M128.577713,103.771591 
	C129.177734,103.735313 129.777756,103.699036 130.664154,103.765106 
	C128.557907,106.489990 126.380760,109.360550 123.718964,111.673317 
	C120.267296,114.672386 116.429604,117.227173 112.400108,119.989876 
	C112.325668,118.898819 112.609207,117.791115 112.946198,116.343536 
	C114.615837,114.220322 116.232033,112.436989 118.293655,110.266373 
	C122.018623,107.843254 125.298172,105.807426 128.577713,103.771591 
z"/>
<path fill="#FF4225" opacity="1.000000" stroke="none" 
	d="
M128.302155,103.544968 
	C125.298172,105.807426 122.018623,107.843254 118.393036,109.941216 
	C119.982666,107.407547 121.918343,104.811752 124.015778,101.891396 
	C125.460556,102.150681 126.743576,102.734512 128.302155,103.544968 
z"/>
<path fill="#FF4024" opacity="1.000000" stroke="none" 
	d="
M138.886047,96.850800 
	C138.461517,95.846863 138.430283,94.875381 138.413681,93.538818 
	C142.847961,90.052032 147.460297,87.166534 151.642868,83.754265 
	C158.206421,78.399498 164.437851,72.639313 170.914383,67.174622 
	C172.115051,66.161545 173.808853,65.732910 175.641968,65.019989 
	C171.558365,69.602524 167.320801,74.432823 162.604767,78.739113 
	C156.357712,84.443420 149.773666,89.783112 143.238998,95.163551 
	C142.171082,96.042831 140.611603,96.325081 138.886047,96.850800 
z"/>
<path fill="#FF4024" opacity="1.000000" stroke="none" 
	d="
M111.710846,120.080566 
	C111.461151,120.485237 110.919418,120.928436 110.175354,121.217850 
	C110.454956,120.749084 110.936890,120.434097 111.710846,120.080566 
z"/>
<path fill="#FF8E7C" opacity="1.000000" stroke="none" 
	d="
M91.363152,40.985893 
	C93.111313,39.041748 95.221153,37.081833 97.666336,35.061958 
	C95.909393,36.991371 93.817116,38.980743 91.363152,40.985893 
z"/>
<path fill="#FF8E7C" opacity="1.000000" stroke="none" 
	d="
M42.363163,82.985886 
	C44.111317,81.041748 46.221149,79.081833 48.666317,77.061951 
	C46.909382,78.991364 44.817112,80.980743 42.363163,82.985886 
z"/>
<path fill="#FF8E7C" opacity="1.000000" stroke="none" 
	d="
M49.363159,76.985886 
	C51.111309,75.041748 53.221142,73.081825 55.666313,71.061951 
	C53.909378,72.991364 51.817112,74.980736 49.363159,76.985886 
z"/>
<path fill="#FF8E7C" opacity="1.000000" stroke="none" 
	d="
M35.363163,88.985886 
	C37.111313,87.041748 39.221149,85.081833 41.666313,83.061951 
	C39.909382,84.991364 37.817116,86.980743 35.363163,88.985886 
z"/>
<path fill="#FF8E7C" opacity="1.000000" stroke="none" 
	d="
M56.363159,70.985886 
	C58.111309,69.041748 60.221146,67.081825 62.666313,65.061951 
	C60.909378,66.991364 58.817112,68.980736 56.363159,70.985886 
z"/>
<path fill="#FF8E7C" opacity="1.000000" stroke="none" 
	d="
M63.363167,64.985886 
	C65.111313,63.041748 67.221153,61.081829 69.666321,59.061947 
	C67.909393,60.991360 65.817123,62.980736 63.363167,64.985886 
z"/>
<path fill="#FF8E7C" opacity="1.000000" stroke="none" 
	d="
M70.363152,58.985886 
	C72.111313,57.041748 74.221161,55.081833 76.666336,53.061954 
	C74.909393,54.991364 72.817116,56.980736 70.363152,58.985886 
z"/>
<path fill="#FF8E7C" opacity="1.000000" stroke="none" 
	d="
M77.363152,52.985893 
	C79.111313,51.041752 81.221153,49.081837 83.666336,47.061958 
	C81.909393,48.991371 79.817116,50.980747 77.363152,52.985893 
z"/>
<path fill="#FF8E7C" opacity="1.000000" stroke="none" 
	d="
M84.363152,46.985893 
	C86.111313,45.041752 88.221153,43.081833 90.666336,41.061958 
	C88.909393,42.991371 86.817116,44.980743 84.363152,46.985893 
z"/>
<path fill="#FF8E7C" opacity="1.000000" stroke="none" 
	d="
M29.335722,94.937164 
	C30.774324,93.039894 32.550468,91.081802 34.664131,89.062851 
	C33.225525,90.960106 31.449394,92.918228 29.335722,94.937164 
z"/>
</svg>